<svg id="レイヤー_1" data-name="レイヤー 1" xmlns="http://www.w3.org/2000/svg" viewBox="0 0 184.71 23.2"><defs><style>.cls-1{font-size:19.68px;font-family:UDDigiKyokashoN-B, UD Digi Kyokasho N-B;}.cls-1,.cls-2{fill:#231815;}.cls-2,.cls-3,.cls-4,.cls-5{stroke:#231815;stroke-miterlimit:10;}.cls-2,.cls-3{stroke-width:0.25px;}.cls-3{fill:#040000;}.cls-4{fill:#fff;}.cls-4,.cls-5{stroke-linecap:round;}.cls-5{fill:none;}</style></defs><title>imprichcreate-logo-footer</title><text class="cls-1" transform="translate(27.08 18.55)">IMPRICH CREATE</text><path class="cls-2" d="M179,5.32a1.18,1.18,0,0,1-1.81,0,1.31,1.31,0,0,1,.45-1.82c.57-.52,1.12-.61,1.37-.14A2,2,0,0,1,179,5.32Z" transform="translate(-3.69 -1.68)"/><path class="cls-2" d="M179,5.32a1.18,1.18,0,0,1-1.81,0,1.31,1.31,0,0,1,.45-1.82c.57-.52,1.12-.61,1.37-.14A2,2,0,0,1,179,5.32Z" transform="translate(-3.69 -1.68)"/><path class="cls-2" d="M180.64,8.7a1.2,1.2,0,0,1-1.82-.13,1.32,1.32,0,0,1,.56-1.79c.58-.49,1.14-.55,1.37-.08A2.08,2.08,0,0,1,180.64,8.7Z" transform="translate(-3.69 -1.68)"/><path class="cls-2" d="M180.64,8.7a1.2,1.2,0,0,1-1.82-.13,1.32,1.32,0,0,1,.56-1.79c.58-.49,1.14-.55,1.37-.08A2.08,2.08,0,0,1,180.64,8.7Z" transform="translate(-3.69 -1.68)"/><path class="cls-2" d="M176.05,4.42a1.18,1.18,0,0,1-1.69.67,1.31,1.31,0,0,1-.28-1.85c.32-.7.8-1,1.21-.66A2,2,0,0,1,176.05,4.42Z" transform="translate(-3.69 -1.68)"/><path class="cls-2" d="M176.05,4.42a1.18,1.18,0,0,1-1.69.67,1.31,1.31,0,0,1-.28-1.85c.32-.7.8-1,1.21-.66A2,2,0,0,1,176.05,4.42Z" transform="translate(-3.69 -1.68)"/><path class="cls-2" d="M173.63,7.24a1.2,1.2,0,0,1-1.72.6A1.32,1.32,0,0,1,171.72,6c.35-.68.84-1,1.23-.6A2,2,0,0,1,173.63,7.24Z" transform="translate(-3.69 -1.68)"/><path class="cls-2" d="M173.63,7.24a1.2,1.2,0,0,1-1.72.6A1.32,1.32,0,0,1,171.72,6c.35-.68.84-1,1.23-.6A2,2,0,0,1,173.63,7.24Z" transform="translate(-3.69 -1.68)"/><path class="cls-3" d="M178.26,9.3c-.38-.68-.63-1.18-.83-1.53a1.39,1.39,0,1,0-2.58-.08,6.28,6.28,0,0,0-1.72,1.36,1.39,1.39,0,0,0,.33,1.94,3.4,3.4,0,0,0,2.16.24,6.82,6.82,0,0,0,1,.33c.74.2,1.49.3,1.94-.32S178.62,10,178.26,9.3Z" transform="translate(-3.69 -1.68)"/><path class="cls-4" d="M22.82,10.19c3.47,3.57,3,6.13,1,8.23s-4.93,2.95-8.4-.62-3.73-7.33-1.68-9.43S19.34,6.62,22.82,10.19Z" transform="translate(-3.69 -1.68)"/><path class="cls-5" d="M14.3,15.62a6.9,6.9,0,0,1,7.06-6.73" transform="translate(-3.69 -1.68)"/><line class="cls-5" x1="10.04" y1="6.69" x2="12.33" y2="9.01"/><path class="cls-5" d="M13.38,8.29c-4.75.9-6.27.41-6.64-.34C6,6.52,9.36,3.89,8.61,2.68c-.5-.82-2.56-.49-4.42,0" transform="translate(-3.69 -1.68)"/><path class="cls-2" d="M185.18,13.06a1.18,1.18,0,0,1-1.59.88,1.31,1.31,0,0,1-.5-1.81c.23-.73.67-1.08,1.11-.8A2,2,0,0,1,185.18,13.06Z" transform="translate(-3.69 -1.68)"/><path class="cls-2" d="M185.18,13.06a1.18,1.18,0,0,1-1.59.88,1.31,1.31,0,0,1-.5-1.81c.23-.73.67-1.08,1.11-.8A2,2,0,0,1,185.18,13.06Z" transform="translate(-3.69 -1.68)"/><path class="cls-2" d="M188.26,15.19a1.18,1.18,0,0,1-1.63.79,1.31,1.31,0,0,1-.41-1.83c.27-.72.72-1,1.15-.74A2,2,0,0,1,188.26,15.19Z" transform="translate(-3.69 -1.68)"/><path class="cls-2" d="M188.26,15.19a1.18,1.18,0,0,1-1.63.79,1.31,1.31,0,0,1-.41-1.83c.27-.72.72-1,1.15-.74A2,2,0,0,1,188.26,15.19Z" transform="translate(-3.69 -1.68)"/><path class="cls-2" d="M182.16,13.75A1.19,1.19,0,0,1,181,15.17c-.69,0-1.16-.68-1.16-1.48s.2-1.25.72-1.16A2,2,0,0,1,182.16,13.75Z" transform="translate(-3.69 -1.68)"/><path class="cls-2" d="M182.16,13.75A1.19,1.19,0,0,1,181,15.17c-.69,0-1.16-.68-1.16-1.48s.2-1.25.72-1.16A2,2,0,0,1,182.16,13.75Z" transform="translate(-3.69 -1.68)"/><path class="cls-2" d="M181.46,17.4a1.19,1.19,0,0,1-1.2,1.36c-.69,0-1.13-.72-1.1-1.52s.26-1.25.78-1.14A2.08,2.08,0,0,1,181.46,17.4Z" transform="translate(-3.69 -1.68)"/><path class="cls-2" d="M181.46,17.4a1.19,1.19,0,0,1-1.2,1.36c-.69,0-1.13-.72-1.1-1.52s.26-1.25.78-1.14A2.08,2.08,0,0,1,181.46,17.4Z" transform="translate(-3.69 -1.68)"/><path class="cls-3" d="M186.49,16.9c-.66-.41-1.12-.72-1.47-.92a1.39,1.39,0,1,0-2.28,1.2,6.33,6.33,0,0,0-.82,2,1.38,1.38,0,0,0,1.24,1.52,3.49,3.49,0,0,0,2-.86,8,8,0,0,0,1.05-.22c.74-.2,1.44-.47,1.52-1.24S187.15,17.3,186.49,16.9Z" transform="translate(-3.69 -1.68)"/></svg>